<?xml version="1.0" encoding="UTF-8"?>
<svg width="211px" height="58px" viewBox="0 0 211 58" version="1.1" xmlns="http://www.w3.org/2000/svg" xmlns:xlink="http://www.w3.org/1999/xlink">
    <!-- Generator: Sketch 53.2 (72643) - https://sketchapp.com -->
    <title>Group 2 Copy</title>
    <desc>Created with Sketch.</desc>
    <defs>
        <polygon id="path-1" points="147.801442 0.00475020475 0 0.00475020475 0 57.8520129 210.903021 57.8520129 210.903021 0.00475020475 147.801442 0.00475020475 147.801442 46.3603175 210.903021 46.3603175 210.903021 0.00466628831 147.801442 0.00466628831"></polygon>
        <polygon id="path-3" points="0 57.8520129 210.903021 57.8520129 210.903021 0.00475020475 0 0.00475020475"></polygon>
    </defs>
    <g id="Design" stroke="none" stroke-width="1" fill="none" fill-rule="evenodd">
        <g id="Home-mod" transform="translate(-156.000000, -17.000000)">
            <g id="Group-2-Copy" transform="translate(156.000000, 17.000000)">
                <g id="Group-3">
                    <path d="M195.905385,9.61390285 C205.428788,19.218963 170.122808,35.9081131 170.122808,35.9081131 L171.676904,46.3603175 C198.936481,32.8755824 218.393115,11.7665495 208.110923,3.47108423 C200.567673,-2.61443961 182.247192,6.63457443 182.247192,6.63457443 C182.247192,6.63457443 185.09975,0.442646003 180.072269,0.0497675298 C163.825269,-1.21890254 147.801442,24.6987992 147.801442,24.6987992 L155.782923,20.5162805 C158.647654,16.4933686 167.529942,4.20363888 173.1255,5.26359226 C181.269288,6.80236628 167.37575,17.1931834 167.37575,17.1931834 L168.069615,22.4356555 C188.869346,1.96914257 195.2805,8.9836603 195.905385,9.61390285" id="Fill-1" fill="#CB3928"></path>
                    <mask id="mask-2" fill="white">
                        <use xlink:href="#path-1"></use>
                    </mask>
                    <g id="Clip-2"></g>
                </g>
                <polygon id="Fill-4" fill="#CB3928" points="175 31.7002938 170.483538 34 169 24.2213516 171.343447 22"></polygon>
                <g id="Group-10">
                    <path d="M0,25.136695 L1.16861538,25.12851 L8.99590385,45.087555 L16.7907308,25.1407875 L17.9268846,25.136695 L9.90076923,45.5909305 C9.86019231,45.6932426 9.75063462,45.9265142 9.56803846,46.2907453 C9.38544231,46.5362943 9.19473077,46.6549764 8.99590385,46.6549764 C8.87417308,46.6549764 8.74838462,46.6140515 8.61853846,46.5362943 C8.48463462,46.4544447 8.31015385,46.1393234 8.08698077,45.5909305 L0,25.136695 L0,25.136695 Z" id="Fill-5" fill="#303030"></path>
                    <mask id="mask-4" fill="white">
                        <use xlink:href="#path-3"></use>
                    </mask>
                    <g id="Clip-8"></g>
                    <path d="M21.3678077,46.4421672 L22.3619423,46.4421672 L22.3619423,30.3095949 L21.3678077,30.3095949 L21.3678077,46.4421672 Z M21.0066731,27.8745669 C21.0066731,27.6740352 21.0918846,27.4816884 21.2623077,27.2975266 C21.4327308,27.1133648 21.6193846,27.0233302 21.8182115,27.0233302 C22.0413846,27.0233302 22.2361538,27.1215498 22.4065769,27.3138966 C22.5810577,27.5062433 22.6662692,27.71496 22.6662692,27.9359541 C22.6662692,28.5048094 22.3822308,28.7871908 21.8182115,28.7871908 C21.2785385,28.7871908 21.0066731,28.484347 21.0066731,27.8745669 L21.0066731,27.8745669 Z" id="Fill-7" fill="#303030" mask="url(#mask-4)"></path>
                    <path d="M28.5611731,46.4421672 L28.5611731,34.8849921 C28.5611731,32.1184729 29.7207004,30.6042538 32.0397551,30.3423348 C32.0951465,30.3423348 32.1874655,30.3300573 32.3167122,30.3095949 L33.5611731,30.3095949 L33.5611731,31.2836061 L32.4422661,31.2836061 C32.2760918,31.2836061 32.1505379,31.2958836 32.0582189,31.316346 C30.3300062,31.5005078 29.4658998,32.6873282 29.4658998,34.8849921 L29.4658998,46.4421672 L28.5611731,46.4421672 Z" id="Fill-9" fill="#303030" mask="url(#mask-4)"></path>
                </g>
                <polygon id="Fill-11" fill="#303030" points="37 46 37 25 37.8543834 25 37.8543834 30.0987322 42 30.0987322 42 31.0587783 37.8543834 31.0587783 37.8543834 46"></polygon>
                <g id="Group-16" transform="translate(45.000000, 30.000000)" fill="#303030">
                    <path d="M0.0949848319,11.6773204 L0.0949848319,0.0190122442 L1.02182791,0.0190122442 L1.02182791,11.6813628 C1.02182791,13.9087303 2.32984022,15.0244352 4.94987714,15.0244352 L8.3723756,15.0244352 C10.9522894,15.0244352 12.2402402,13.9370271 12.2402402,11.7702958 L12.2402402,0.0190122442 L13.2272679,0.0190122442 L13.2272679,11.6773204 C13.2272679,13.4438532 12.5491879,14.7091273 11.1970402,15.4731426 C10.6192679,15.792493 9.68440022,15.9541893 8.39243714,15.9541893 L4.96191406,15.9541893 C3.64587714,15.9541893 2.70298483,15.792493 2.12521252,15.4731426 C0.773064832,14.7091273 0.0949848319,13.4438532 0.0949848319,11.6773204" id="Fill-12"></path>
                    <path d="M22.5438464,14.9637991 C22.7645233,15.0042232 22.9330402,15.0244352 23.0534094,15.0244352 L27.9002771,15.0244352 C29.9345171,15.0244352 30.949631,13.9814936 30.949631,11.8956105 L30.949631,6.27261928 L22.9611264,6.27261928 C22.8808802,6.27261928 22.7123633,6.29283133 22.4515633,6.33325542 C20.6981848,6.61622406 19.8194894,7.66725046 19.8194894,9.49037701 L19.8194894,11.8349743 C19.8194894,13.6015072 20.726271,14.6444487 22.5438464,14.9637991 M18.8966587,11.8956105 L18.8966587,9.52271628 C18.8966587,8.23723016 19.2617787,7.22258545 20.0000433,6.47069733 C20.7342956,5.71880922 21.7413848,5.34286517 23.0132864,5.34286517 L30.949631,5.34286517 L30.949631,4.31205082 C30.949631,2.09276817 29.8261848,0.981105635 27.5712679,0.981105635 L18.8966587,0.981105635 L18.8966587,0.0190122442 L27.089791,0.0190122442 C30.2795756,0.0190122442 31.8764741,1.50661883 31.8764741,4.4777896 L31.8764741,11.6490235 C31.8764741,12.9911034 31.5354279,14.0461722 30.845311,14.8101875 C30.1592064,15.5742029 29.1601418,15.9541893 27.8481171,15.9541893 L23.1015571,15.9541893 C21.6892248,15.9541893 20.5978771,15.4852699 19.8194894,14.5433885 C19.2056064,13.8400093 18.8966587,12.9587641 18.8966587,11.8956105" id="Fill-14"></path>
                </g>
                <polygon id="Fill-17" fill="#303030" points="83 46 84 46 84 25 83 25"></polygon>
                <g id="Group-28" transform="translate(82.000000, 25.000000)" fill="#303030">
                    <path d="M17.6573295,16.4102564 L17.6573295,0.0246153846 L18.7161177,0.0246153846 L18.7161177,16.4348718 C18.7161177,17.9405128 19.1722111,19.0030769 20.0803256,19.614359 C20.8255496,20.1025641 21.9983612,20.3446154 23.594688,20.3446154 L31.4704434,20.3446154 L31.4704434,21.3825641 L23.6231939,21.3825641 C22.2101188,21.3825641 21.2327759,21.2923077 20.6870927,21.1076923 C19.5550038,20.7220513 18.7568404,20.1435897 18.2926025,19.3682051 C17.8690872,18.6584615 17.6573295,17.6697436 17.6573295,16.4102564" id="Fill-18"></path>
                    <path d="M38.5928302,20.3774359 C38.8168047,20.4184615 38.9878397,20.4389744 39.1100076,20.4389744 L44.0293005,20.4389744 C46.0939375,20.4389744 47.1282921,19.3805128 47.1282921,17.2635897 L47.1282921,11.5569231 L39.0163455,11.5569231 C38.9349003,11.5569231 38.7638653,11.5774359 38.5032405,11.6184615 C36.7195896,11.905641 35.8277641,12.9723077 35.8277641,14.8225641 L35.8277641,17.2020513 C35.8277641,18.9948718 36.7521677,20.0533333 38.5928302,20.3774359 M34.8911438,17.2635897 L34.8911438,14.8553846 C34.8911438,13.5507692 35.2657919,12.5210256 36.0110159,11.7579487 C36.7562399,10.9948718 37.7783778,10.6133333 39.0692849,10.6133333 L47.1282921,10.6133333 L47.1282921,9.56717949 C47.1282921,7.31487179 45.9839864,6.18666667 43.695375,6.18666667 L34.8911438,6.18666667 L34.8911438,5.21025641 L43.2067035,5.21025641 C46.4482243,5.21025641 48.0649125,6.72 48.0649125,9.73538462 L48.0649125,17.0133333 C48.0649125,18.3753846 47.7187702,19.4461538 47.0224133,20.2215385 C46.3219842,20.9969231 45.3079908,21.3825641 43.9763611,21.3825641 L39.162947,21.3825641 C37.7295106,21.3825641 36.617783,20.9066667 35.8277641,19.9507692 C35.204708,19.2369231 34.8911438,18.3425641 34.8911438,17.2635897" id="Fill-20"></path>
                    <path d="M59.0315149,20.4389744 L62.3911314,20.4389744 C63.7838451,20.4389744 64.7693326,20.1476923 65.3435216,19.5692308 C65.9217828,18.9866667 66.2068412,17.9979487 66.2068412,16.5948718 L66.2068412,9.94051282 C66.2068412,8.49641026 65.6937361,7.43794872 64.6634538,6.76923077 C64.1381319,6.42051282 63.3888357,6.24820513 62.4237095,6.24820513 L54.7597117,6.24820513 L54.7597117,16.8082051 C54.7597117,19.2287179 56.1809313,20.4389744 59.0315149,20.4389744 M53.8190191,16.8697436 L53.8190191,0.0533333333 L54.7597117,0.0533333333 L54.7597117,5.21025641 L62.3626255,5.21025641 C65.551207,5.21025641 67.1475338,6.76102564 67.1475338,9.85846154 L67.1475338,16.7384615 C67.1475338,18.2235897 66.8136083,19.3435897 66.1457573,20.0984615 C65.661158,20.6482051 65.0869691,21.0174359 64.419118,21.1979487 C63.9548801,21.3210256 63.27074,21.3825641 62.3626255,21.3825641 L58.7871792,21.3825641 C58.64465,21.3825641 58.4532537,21.374359 58.2129902,21.3538462 C56.8609991,21.2307692 55.7899941,20.7876923 54.9999752,20.0246154 C54.2140286,19.2615385 53.8190191,18.2112821 53.8190191,16.8697436" id="Fill-22"></path>
                    <path d="M0.223974429,32.5989744 L0.378720398,31.8441026 C0.378720398,31.8441026 1.23389549,32.1517949 1.78772317,32.1517949 C1.78772317,32.1517949 2.51665813,32.1517949 2.98904056,31.6841026 C2.98904056,31.6841026 3.21301499,31.4584615 3.35147191,31.1384615 C3.35147191,31.1384615 3.48992883,30.8184615 3.48992883,30.4861538 C3.48992883,30.4861538 3.48992883,29.92 3.02569092,29.6369231 C3.02569092,29.6369231 2.56145301,29.3538462 1.6329772,29.3538462 L1.41307503,29.3538462 L1.54745969,28.6892308 L1.76736186,28.6892308 C1.76736186,28.6892308 2.99311282,28.6892308 3.56322955,28.1271795 C3.56322955,28.1271795 3.73833683,27.9548718 3.84828792,27.7251282 C3.84828792,27.7251282 3.95416674,27.4953846 3.95416674,27.2738462 C3.95416674,27.2738462 3.95416674,26.9497436 3.69354195,26.7241026 C3.69354195,26.7241026 3.42884489,26.4984615 2.87501722,26.4984615 C2.87501722,26.4984615 2.25196108,26.4984615 1.45786992,26.7692308 L1.60854363,26.014359 C1.60854363,26.014359 2.3578399,25.8338462 3.04197997,25.8338462 C3.04197997,25.8338462 3.9256609,25.8338462 4.38175428,26.1825641 C4.38175428,26.1825641 4.8337754,26.5353846 4.8337754,27.1794872 C4.8337754,27.1794872 4.8337754,27.8358974 4.3369594,28.3528205 C4.3369594,28.3528205 4.1414908,28.5579487 3.90937185,28.7138462 C3.90937185,28.7138462 3.6772529,28.8697436 3.15193105,29.0338462 C3.15193105,29.0338462 3.84421565,29.2102564 4.11705723,29.5917949 C4.11705723,29.5917949 4.39397107,29.9692308 4.39397107,30.4164103 C4.39397107,30.4164103 4.39397107,30.8553846 4.206647,31.294359 C4.206647,31.294359 4.01932293,31.7374359 3.709831,32.0533333 C3.709831,32.0533333 3.32296607,32.4635897 2.83022233,32.64 C2.83022233,32.64 2.33747859,32.8205128 1.60854363,32.8205128 C1.60854363,32.8205128 1.27869038,32.8205128 1.01399332,32.7835897 C1.01399332,32.7835897 0.749296271,32.7466667 0.223974429,32.5989744 L0.223974429,32.5989744 Z M5.80297384,32.6523077 L7.11831458,26.0061538 L9.43543185,26.0061538 C9.43543185,26.0061538 10.4657142,26.0061538 10.9666025,26.2276923 C10.9666025,26.2276923 11.4674908,26.4533333 11.7729104,26.9866667 C11.7729104,26.9866667 12.0742579,27.5158974 12.0742579,28.3446154 C12.0742579,28.3446154 12.0742579,29.4728205 11.5530083,30.4984615 C11.5530083,30.4984615 11.0276864,31.5241026 10.1847281,32.0861538 C10.1847281,32.0861538 9.33769756,32.6523077 7.91240574,32.6523077 L5.80297384,32.6523077 Z M6.86583431,31.9466667 L7.82688823,31.9466667 C7.82688823,31.9466667 8.98748299,31.9466667 9.62682818,31.5076923 C9.62682818,31.5076923 10.2661734,31.0728205 10.6733996,30.1989744 C10.6733996,30.1989744 11.0846981,29.3292308 11.0846981,28.3897436 C11.0846981,28.3897436 11.0846981,27.8482051 10.8729405,27.4789744 C10.8729405,27.4789744 10.6571106,27.1097436 10.1847281,26.9087179 C10.1847281,26.9087179 9.70827343,26.7076923 8.53546187,26.7076923 L7.91240574,26.7076923 L6.86583431,31.9466667 Z M15.2058276,32.5128205 L15.3646458,31.6923077 C15.3646458,31.6923077 15.9795574,31.9507692 16.3501333,32.0328205 C16.3501333,32.0328205 16.7207092,32.1107692 17.0790683,32.1107692 C17.0790683,32.1107692 17.8161478,32.1107692 18.1907959,31.7702564 C18.1907959,31.7702564 18.5695163,31.425641 18.5695163,30.945641 C18.5695163,30.945641 18.5695163,30.6215385 18.394409,30.3671795 C18.394409,30.3671795 18.2193017,30.1087179 17.7306302,29.7066667 L17.3396931,29.3948718 C17.3396931,29.3948718 16.6433362,28.8287179 16.4600844,28.4841026 C16.4600844,28.4841026 16.2727603,28.1353846 16.2727603,27.7333333 C16.2727603,27.7333333 16.2727603,26.9907692 16.8632384,26.4164103 C16.8632384,26.4164103 17.4496441,25.8379487 18.6061667,25.8379487 C18.6061667,25.8379487 19.4124746,25.8379487 20.3205891,26.1251282 L20.1617709,26.9210256 C20.1617709,26.9210256 19.2455118,26.5435897 18.5328659,26.5435897 C18.5328659,26.5435897 17.9586769,26.5435897 17.5840288,26.8225641 C17.5840288,26.8225641 17.2093807,27.1015385 17.2093807,27.5692308 C17.2093807,27.5692308 17.2093807,27.8810256 17.3722712,28.1066667 C17.3722712,28.1066667 17.5351617,28.3323077 18.0767725,28.7712821 L18.4839988,29.1035897 C18.4839988,29.1035897 18.9971038,29.5179487 19.2536564,29.92 C19.2536564,29.92 19.5142812,30.3179487 19.5142812,30.8184615 C19.5142812,30.8184615 19.5142812,31.6184615 18.8790082,32.2174359 C18.8790082,32.2174359 18.2437353,32.8205128 16.8917442,32.8205128 C16.8917442,32.8205128 16.5089515,32.8205128 16.1831706,32.7712821 C16.1831706,32.7712821 15.8533173,32.7220513 15.2058276,32.5128205 L15.2058276,32.5128205 Z M23.0775107,32.8205128 C23.0775107,32.8205128 21.9902167,32.8205128 21.3264379,32.1558974 C21.3264379,32.1558974 20.6667314,31.4953846 20.6667314,30.2974359 C20.6667314,30.2974359 20.6667314,29.1569231 21.1920532,28.1271795 C21.1920532,28.1271795 21.7133028,27.1015385 22.6173451,26.4697436 C22.6173451,26.4697436 23.5213873,25.8379487 24.665693,25.8379487 C24.665693,25.8379487 25.7896374,25.8379487 26.4452717,26.5025641 C26.4452717,26.5025641 27.1049782,27.1671795 27.1049782,28.3569231 C27.1049782,28.3569231 27.1049782,29.5097436 26.5715118,30.5435897 C26.5715118,30.5435897 26.0339732,31.5774359 25.1340032,32.1969231 C25.1340032,32.1969231 24.2381055,32.8205128 23.0775107,32.8205128 L23.0775107,32.8205128 Z M23.252618,32.1107692 C23.252618,32.1107692 23.9937697,32.1107692 24.6290427,31.6348718 C24.6290427,31.6348718 25.2683878,31.1548718 25.6878309,30.2523077 C25.6878309,30.2523077 26.1072739,29.3497436 26.1072739,28.414359 C26.1072739,28.414359 26.1072739,27.614359 25.6878309,27.0769231 C25.6878309,27.0769231 25.2724601,26.5435897 24.5028025,26.5435897 C24.5028025,26.5435897 23.7901566,26.5435897 23.1467392,27.0153846 C23.1467392,27.0153846 22.5033217,27.4912821 22.0798064,28.3938462 C22.0798064,28.3938462 21.6603634,29.3005128 21.6603634,30.24 C21.6603634,30.24 21.6603634,31.0523077 22.087951,31.5815385 C22.087951,31.5815385 22.5114662,32.1107692 23.252618,32.1107692 L23.252618,32.1107692 Z M27.614011,32.6523077 L28.9293517,26.0061538 L29.8618998,26.0061538 L28.6890882,31.9466667 L31.7636463,31.9466667 L31.6211171,32.6523077 L27.614011,32.6523077 Z M33.8445723,26.0061538 L34.8300598,26.0061538 L33.962668,30.3712821 C33.962668,30.3712821 33.901584,30.7035897 33.901584,30.9948718 C33.901584,30.9948718 33.901584,31.5569231 34.2803044,31.84 C34.2803044,31.84 34.6549526,32.1230769 35.2169248,32.1230769 C35.2169248,32.1230769 35.8644145,32.1230769 36.2879298,31.7046154 C36.2879298,31.7046154 36.7155173,31.2902564 36.9232027,30.24 L37.7580165,26.0061538 L38.5724689,26.0061538 L37.7702332,30.0841026 C37.7702332,30.0841026 37.5706924,31.1015385 37.2612005,31.6389744 C37.2612005,31.6389744 36.9476363,32.1764103 36.3653027,32.4964103 C36.3653027,32.4964103 35.778897,32.8205128 35.0051671,32.8205128 C35.0051671,32.8205128 34.1214862,32.8205128 33.5269359,32.3692308 C33.5269359,32.3692308 32.9283133,31.9179487 32.9283133,31.0276923 C32.9283133,31.0276923 32.9283133,30.6297436 33.0179031,30.174359 L33.8445723,26.0061538 Z M40.4497819,32.6523077 L41.6225934,26.7076923 L39.2810426,26.7076923 L39.4194995,26.0061538 L45.0392215,26.0061538 L44.9048369,26.7076923 L42.5592138,26.7076923 L41.3864022,32.6523077 L40.4497819,32.6523077 Z M44.6157062,32.6523077 L45.931047,26.0061538 L46.8635951,26.0061538 L45.5523266,32.6523077 L44.6157062,32.6523077 Z M49.8078407,32.8205128 C49.8078407,32.8205128 48.7205467,32.8205128 48.0608402,32.1558974 C48.0608402,32.1558974 47.3970614,31.4953846 47.3970614,30.2974359 C47.3970614,30.2974359 47.3970614,29.1569231 47.9223833,28.1271795 C47.9223833,28.1271795 48.4436329,27.1015385 49.3476751,26.4697436 C49.3476751,26.4697436 50.2557896,25.8379487 51.3960231,25.8379487 C51.3960231,25.8379487 52.5199675,25.8379487 53.1756017,26.5025641 C53.1756017,26.5025641 53.8353082,27.1671795 53.8353082,28.3569231 C53.8353082,28.3569231 53.8353082,29.5097436 53.3018418,30.5435897 C53.3018418,30.5435897 52.7643032,31.5774359 51.8643332,32.1969231 C51.8643332,32.1969231 50.9684355,32.8205128 49.8078407,32.8205128 L49.8078407,32.8205128 Z M49.982948,32.1107692 C49.982948,32.1107692 50.7240998,32.1107692 51.3593727,31.6348718 C51.3593727,31.6348718 51.9987179,31.1548718 52.4181609,30.2523077 C52.4181609,30.2523077 52.8376039,29.3497436 52.8376039,28.414359 C52.8376039,28.414359 52.8376039,27.614359 52.4222332,27.0769231 C52.4222332,27.0769231 52.0027901,26.5435897 51.2331326,26.5435897 C51.2331326,26.5435897 50.5204866,26.5435897 49.8770692,27.0153846 C49.8770692,27.0153846 49.2336517,27.4912821 48.8142087,28.3938462 C48.8142087,28.3938462 48.3906934,29.3005128 48.3906934,30.24 C48.3906934,30.24 48.3906934,31.0523077 48.818281,31.5815385 C48.818281,31.5815385 49.2417963,32.1107692 49.982948,32.1107692 L49.982948,32.1107692 Z M54.3565578,32.6523077 L55.6678263,26.0061538 L56.5840853,26.0061538 L58.8686245,31.2697436 L59.9111236,26.0061538 L60.7133593,26.0061538 L59.4020908,32.6523077 L58.4817595,32.6523077 L56.2012926,27.3805128 L55.1587935,32.6523077 L54.3565578,32.6523077 Z M60.8436717,32.5128205 L61.0024899,31.6923077 C61.0024899,31.6923077 61.6174015,31.9507692 61.9879774,32.0328205 C61.9879774,32.0328205 62.3585533,32.1107692 62.7169124,32.1107692 C62.7169124,32.1107692 63.4539919,32.1107692 63.8327123,31.7702564 C63.8327123,31.7702564 64.2073604,31.425641 64.2073604,30.945641 C64.2073604,30.945641 64.2073604,30.6215385 64.0322531,30.3671795 C64.0322531,30.3671795 63.8612181,30.1087179 63.3684743,29.7066667 L62.9775372,29.3948718 C62.9775372,29.3948718 62.2811803,28.8287179 62.0979285,28.4841026 C62.0979285,28.4841026 61.9146767,28.1353846 61.9146767,27.7333333 C61.9146767,27.7333333 61.9146767,26.9907692 62.5010825,26.4164103 C62.5010825,26.4164103 63.0915605,25.8379487 64.2440107,25.8379487 C64.2440107,25.8379487 65.0503187,25.8379487 65.9625055,26.1251282 L65.799615,26.9210256 C65.799615,26.9210256 64.8833559,26.5435897 64.17071,26.5435897 C64.17071,26.5435897 63.596521,26.5435897 63.2259452,26.8225641 C63.2259452,26.8225641 62.851297,27.1015385 62.851297,27.5692308 C62.851297,27.5692308 62.851297,27.8810256 63.0101153,28.1066667 C63.0101153,28.1066667 63.1730058,28.3323077 63.7146166,28.7712821 L64.1259151,29.1035897 C64.1259151,29.1035897 64.6349479,29.5179487 64.8955727,29.92 C64.8955727,29.92 65.1521253,30.3179487 65.1521253,30.8184615 C65.1521253,30.8184615 65.1521253,31.6184615 64.5168523,32.2174359 C64.5168523,32.2174359 63.8856517,32.8205128 62.5295883,32.8205128 C62.5295883,32.8205128 62.1467956,32.8205128 61.8210147,32.7712821 C61.8210147,32.7712821 61.4952337,32.7220513 60.8436717,32.5128205 L60.8436717,32.5128205 Z" id="Fill-24"></path>
                    <path d="M114.650474,13.0133333 C114.650474,13.0133333 115.684829,13.0133333 116.666244,13.5507692 C116.666244,13.5507692 117.647659,14.0841026 118.197415,15.0769231 C118.197415,15.0769231 118.74717,16.065641 118.74717,17.1487179 C118.74717,17.1487179 118.74717,18.2112821 118.205559,19.1958974 C118.205559,19.1958974 117.66802,20.1805128 116.690677,20.7261538 C116.690677,20.7261538 115.717407,21.2717949 114.650474,21.2717949 C114.650474,21.2717949 113.587614,21.2717949 112.614343,20.7261538 C112.614343,20.7261538 111.641072,20.1805128 111.095389,19.1958974 C111.095389,19.1958974 110.553778,18.2112821 110.553778,17.1487179 C110.553778,17.1487179 110.553778,16.065641 111.103534,15.0769231 C111.103534,15.0769231 111.653289,14.0841026 112.638776,13.5507692 C112.638776,13.5507692 113.620192,13.0133333 114.650474,13.0133333 L114.650474,13.0133333 Z M114.650474,13.7025641 C114.650474,13.7025641 113.791227,13.7025641 112.972702,14.145641 C112.972702,14.145641 112.154177,14.5887179 111.694012,15.4215385 C111.694012,15.4215385 111.229774,16.2502564 111.229774,17.1487179 C111.229774,17.1487179 111.229774,18.0348718 111.685867,18.8553846 C111.685867,18.8553846 112.137888,19.6758974 112.952341,20.1312821 C112.952341,20.1312821 113.766793,20.5866667 114.650474,20.5866667 C114.650474,20.5866667 115.538227,20.5866667 116.35268,20.1312821 C116.35268,20.1312821 117.167132,19.6758974 117.619153,18.8553846 C117.619153,18.8553846 118.067102,18.0348718 118.067102,17.1487179 C118.067102,17.1487179 118.067102,16.2502564 117.611009,15.4215385 C117.611009,15.4215385 117.150843,14.5887179 116.328246,14.145641 C116.328246,14.145641 115.509721,13.7025641 114.650474,13.7025641 L114.650474,13.7025641 Z M112.854606,19.425641 L112.854606,14.9825641 L114.369488,14.9825641 C114.369488,14.9825641 115.14729,14.9825641 115.493432,15.1097436 C115.493432,15.1097436 115.843647,15.2328205 116.04726,15.5405128 C116.04726,15.5405128 116.254945,15.8441026 116.254945,16.1887179 C116.254945,16.1887179 116.254945,16.6769231 115.908803,17.0379487 C115.908803,17.0379487 115.562661,17.3989744 114.996616,17.4441026 C114.996616,17.4441026 115.228735,17.5425641 115.367192,17.6738462 C115.367192,17.6738462 115.635962,17.9364103 116.018754,18.56 L116.560365,19.425641 L115.688901,19.425641 L115.297964,18.7282051 C115.297964,18.7282051 114.837798,17.9035897 114.55274,17.694359 C114.55274,17.694359 114.357271,17.5425641 113.986695,17.5425641 L113.567252,17.5425641 L113.567252,19.425641 L112.854606,19.425641 Z M113.567252,16.9271795 L114.430572,16.9271795 C114.430572,16.9271795 115.049556,16.9271795 115.27353,16.7425641 C115.27353,16.7425641 115.497505,16.5579487 115.497505,16.2502564 C115.497505,16.2502564 115.497505,16.0533333 115.391626,15.8974359 C115.391626,15.8974359 115.281675,15.7374359 115.090278,15.6635897 C115.090278,15.6635897 114.898882,15.585641 114.377632,15.585641 L113.567252,15.585641 L113.567252,16.9271795 Z" id="Fill-26"></path>
                </g>
            </g>
        </g>
    </g>
</svg>